Format                         : Windows Media
File size                      : 309 MiB
Duration                       : 16mn 23s
Overall bit rate               : 2 634 Kbps
Maximum Overall bit rate       : 2 645 Kbps

Video
Format                         : VC-1
Codec ID                       : WMV3
Bit rate                       : 2 525 Kbps
Width                          : 640 pixels
Height                         : 480 pixels
Display aspect ratio           : 4:3
Frame rate                     : 30.000 fps
Bit depth                      : 8 bits
Stream size                    : 296 MiB (96%)

Audio
Format                         : WMA
Codec ID                       : 161
Bit rate                       : 96.0 Kbps
Channel(s)                     : 2 channels
Sampling rate                  : 44.1 KHz
Bit depth                      : 16 bits
Stream size                    : 11.3 MiB (4%)
Language                       : Czech
 
http://www.abload.de/img/rp.60.nikola.wmv_thum9ouhi.jpg